<?xml version="1.0" standalone="no"?>
<!DOCTYPE svg PUBLIC "-//W3C//DTD SVG 20010904//EN"
 "http://www.w3.org/TR/2001/REC-SVG-20010904/DTD/svg10.dtd">
<svg version="1.0" xmlns="http://www.w3.org/2000/svg"
 width="203.000000pt" height="203.000000pt" viewBox="0 0 203.000000 203.000000"
 preserveAspectRatio="xMidYMid meet">
<metadata>
Created by potrace 1.14, written by Peter Selinger 2001-2017
</metadata>
<g transform="translate(0.000000,203.000000) scale(0.100000,-0.100000)"
fill="#000000" stroke="none">
<path d="M840 2015 c-169 -31 -360 -119 -475 -221 -16 -14 -39 -33 -50 -43
-69 -56 -185 -226 -236 -346 -54 -125 -73 -226 -72 -390 0 -168 19 -270 76
-400 141 -319 435 -550 767 -602 61 -10 274 -10 330 -1 101 17 226 61 320 112
272 148 455 402 514 716 19 96 15 301 -8 395 -62 264 -217 485 -441 631 -115
74 -211 112 -379 151 -53 11 -276 10 -346 -2z"/>
</g>
</svg>
